<svg width="218" height="206" viewBox="0 0 218 206" fill="none" xmlns="http://www.w3.org/2000/svg">
<path d="M33.9111 22.8889C31.3414 22.8889 28.877 23.8535 27.06 25.5705C25.243 27.2875 24.2222 29.6163 24.2222 32.0445V68.6667H72.6666V22.8889H33.9111ZM60.5555 57.2222H36.3333V34.3334H60.5555V57.2222Z" fill="black"/>
<path d="M24.2222 173.956C24.2222 176.384 25.243 178.713 27.06 180.43C28.877 182.147 31.3414 183.111 33.9111 183.111H72.6666V137.333H24.2222V173.956ZM36.3333 148.778H60.5555V171.667H36.3333V148.778Z" fill="black"/>
<path d="M145.333 183.111H184.089C186.659 183.111 189.123 182.147 190.94 180.43C192.757 178.713 193.778 176.384 193.778 173.956V137.333H145.333V183.111ZM157.445 148.778H181.667V171.667H157.445V148.778Z" fill="black"/>
<path d="M184.089 22.8889H145.333V68.6667H193.778V32.0445C193.778 29.6163 192.757 27.2875 190.94 25.5705C189.123 23.8535 186.659 22.8889 184.089 22.8889V22.8889ZM181.667 57.2222H157.445V34.3334H181.667V57.2222Z" fill="black"/>
<path d="M121.111 57.2223V45.7778H96.8887V68.6667H109V57.2223H121.111Z" fill="black"/>
<path d="M72.6665 68.6666H84.7776V80.1111H72.6665V68.6666Z" fill="black"/>
<path d="M84.7778 80.1111H109V91.5555H84.7778V80.1111Z" fill="black"/>
<path d="M121.111 34.3334V45.7778H133.222V22.8889H84.7778V45.7778H96.8889V34.3334H121.111Z" fill="black"/>
<path d="M24.2222 80.1111H36.3333V103H24.2222V80.1111Z" fill="black"/>
<path d="M72.6666 91.5555V103H60.5555V80.1111H48.4444V103H36.3333V114.444H24.2222V125.889H48.4444V114.444H60.5555V125.889H72.6666V114.444H84.7777V91.5555H72.6666Z" fill="black"/>
<path d="M121.111 91.5555H133.222V103H145.333V91.5555H157.444V80.1111H133.222V57.2222H121.111V68.6666H109V80.1111H121.111V91.5555Z" fill="black"/>
<path d="M109 171.667H84.7778V183.111H133.222V171.667H121.111V160.222H109V171.667Z" fill="black"/>
<path d="M133.222 114.444V103H121.111V91.5555H109V103H96.8887V114.444H109V125.889H121.111V114.444H133.222Z" fill="black"/>
<path d="M181.667 114.444H193.778V125.889H181.667V114.444Z" fill="black"/>
<path d="M133.222 114.444H169.555V125.889H133.222V114.444Z" fill="black"/>
<path d="M181.667 80.1111H169.555V91.5555H157.444V103H169.555V114.444H181.667V103H193.778V91.5555H181.667V80.1111Z" fill="black"/>
<path d="M121.111 125.889H133.222V160.222H121.111V125.889Z" fill="black"/>
<path d="M84.7778 160.222H96.8889V148.778H109V137.333H96.8889V114.444H84.7778V160.222Z" fill="black"/>
</svg>
