<svg xmlns="http://www.w3.org/2000/svg" data-name="Layer 1" viewBox="0 0 48 60" x="0px" y="0px"><defs><style>.cls-1{fill:none;stroke:#000;stroke-linecap:round;stroke-linejoin:round;}</style></defs><title>text-upload</title><path class="cls-1" d="M29,7.05v5.68a2,2,0,0,0,2,2h5.73l-7.7-7.68Z"/><line class="cls-1" x1="17.12" y1="22.94" x2="31.14" y2="22.94"/><line class="cls-1" x1="17.12" y1="27.44" x2="31.14" y2="27.44"/><line class="cls-1" x1="17.12" y1="31.94" x2="31.14" y2="31.94"/><path class="cls-1" d="M36.75,32.81V14.73H31a2,2,0,0,1-2-2V7.05H13.75a2,2,0,0,0-2,2v29a2,2,0,0,0,2,2H33"/><polygon class="cls-1" points="38.81 37.57 38.81 41.33 32.95 41.33 32.95 37.57 30.28 37.57 35.88 31.97 41.48 37.57 38.81 37.57"/></svg>