<svg xmlns="http://www.w3.org/2000/svg" xmlns:xlink="http://www.w3.org/1999/xlink" version="1.1" x="0px" y="0px" viewBox="0 0 512 640" style="enable-background:new 0 0 512 512;" xml:space="preserve"><g><g><g><path d="M256,350.488c-49.496,0-89.764-40.269-89.764-89.764c0-49.496,40.268-89.764,89.764-89.764     c49.495,0,89.764,40.268,89.764,89.764C345.764,310.22,305.495,350.488,256,350.488z M256,180.41     c-44.286,0-80.315,36.029-80.315,80.315c0,44.285,36.029,80.314,80.315,80.314c44.286,0,80.315-36.029,80.315-80.314     C336.315,216.438,300.286,180.41,256,180.41z"/></g><g><g><path d="M298.531,463.874c-0.004,0-0.007,0-0.011,0l-85.564-0.18c-1.266-0.003-2.478-0.514-3.364-1.419      c-9.169-9.357-17.545-17.822-25.646-26.009c-53.584-54.153-80.479-81.335-94.089-123.066      c-13.497-41.384-13.459-96.264-13.385-205.601c0.006-8.466,0.012-17.26,0.012-26.402c0-1.403,0.624-2.733,1.702-3.63      c1.078-0.898,2.5-1.268,3.879-1.016c19.795,3.647,39.148,5.496,57.519,5.496c45.5,0,85.383-11.148,118.542-33.133      c1.748-1.158,4.05-1.026,5.653,0.323c26.251,22.106,59.23,32.401,103.789,32.401c18.01-0.001,38.479-1.674,62.579-5.117      c1.374-0.195,2.771,0.224,3.813,1.15c1.039,0.927,1.616,2.265,1.578,3.657l-0.163,5.901c0,12.514,0.015,24.354,0.03,35.568      c0.128,101.077,0.192,151.811-11.459,189.328c-11.777,37.924-35.046,61.551-81.401,108.622      c-11.901,12.084-25.39,25.78-40.601,41.67C301.052,463.348,299.819,463.874,298.531,463.874z M214.955,454.25l81.563,0.171      c14.685-15.316,27.736-28.569,39.294-40.304c45.283-45.982,68.012-69.063,79.109-104.795      c11.225-36.142,11.16-86.395,11.033-186.513c-0.015-11.239-0.029-23.104-0.029-35.647c0-0.043,0.001-0.086,0.002-0.13      l0.011-0.389c-22.173,2.987-41.314,4.442-58.37,4.443c-45.409,0.001-79.575-10.306-107.157-32.389      c-34.136,21.766-74.766,32.797-120.828,32.798c-17.209,0-35.232-1.569-53.651-4.668c-0.001,7.139-0.007,14.063-0.011,20.779      C85.847,215.94,85.81,270.318,98.84,310.27c12.917,39.605,39.287,66.256,91.823,119.352      C198.361,437.4,206.309,445.434,214.955,454.25z"/></g><g><path d="M307.981,397.732c-1.305,0-2.603-0.537-3.536-1.59c-1.731-1.952-1.553-4.938,0.399-6.669      c43.608-38.681,65.281-59.795,75.586-86.21c10.313-26.433,9.576-59.951,8.238-120.8c-0.318-14.476-0.675-30.728-0.928-48.816      c-53.048,1.206-96.542-8.749-132.727-30.355c-38.775,20.623-84.042,30.963-131.357,30.006      c-0.544,37.128-1.007,72.357,0.068,108.388c0.078,2.608-1.973,4.786-4.581,4.863c-2.593,0.105-4.786-1.973-4.863-4.582      c-1.12-37.512-0.583-74.054-0.015-112.742l0.013-0.854c0.019-1.271,0.548-2.479,1.469-3.355c0.92-0.875,2.152-1.352,3.425-1.297      c48.353,1.738,94.594-8.632,133.713-30.016c1.489-0.813,3.301-0.767,4.745,0.124c36.09,22.247,80.111,32.141,134.604,30.238      c1.27-0.037,2.505,0.425,3.425,1.302s1.447,2.088,1.464,3.359c0.254,19.982,0.646,37.804,0.991,53.529      c1.363,62.064,2.116,96.252-8.882,124.442c-11.052,28.328-33.353,50.136-78.119,89.844      C310.216,397.34,309.096,397.732,307.981,397.732z"/></g></g><g><path d="M411.917,463.874H90.657c-2.609,0-4.725-2.115-4.725-4.725s2.116-4.725,4.725-4.725h321.26     c2.609,0,4.724,2.115,4.724,4.725S414.526,463.874,411.917,463.874z"/></g><g><path d="M236.157,297.694c-0.2,0-0.4-0.013-0.6-0.037c-1.32-0.169-2.508-0.887-3.271-1.978l-24.232-34.619     c-1.496-2.139-0.976-5.083,1.161-6.58c2.137-1.496,5.083-0.977,6.58,1.162l21.252,30.363l63.896-54.442     c1.985-1.693,4.968-1.456,6.661,0.532c1.691,1.986,1.454,4.968-0.532,6.66l-67.852,57.813     C238.361,297.299,237.273,297.694,236.157,297.694z"/></g></g></g></svg>